<?xml version="1.0" encoding="UTF-8"?>
<svg width="213px" height="326px" viewBox="0 0 213 326" version="1.1" xmlns="http://www.w3.org/2000/svg" xmlns:xlink="http://www.w3.org/1999/xlink">
    <!-- Generator: Sketch 52.4 (67378) - http://www.bohemiancoding.com/sketch -->
    <title>logo@1x</title>
    <desc>Created with Sketch.</desc>
    <g id="Page-1" stroke="none" stroke-width="1" fill="none" fill-rule="evenodd">
        <g id="Artboard" transform="translate(-810.000000, -1109.000000)">
            <g id="logo" transform="translate(755.000000, 1109.000000)">
                <rect id="Rectangle" x="0" y="1" width="325" height="325" rx="162.5"></rect>
                <g id="preview005" transform="translate(54.000000, -0.000000)" fill="#70757C">
                    <g id="Group" transform="translate(107.000000, 210.042961) scale(-1, 1) rotate(-180.000000) translate(-107.000000, -210.042961) translate(0.000000, 94.042961)">
                        <path d="M40.7427952,231.64671 C27.1618635,230.540116 7.44436258,227.019134 6.33776815,225.409542 C5.63357168,224.504146 5.02997472,221.083763 5.02997472,217.76398 C5.02997472,212.029809 5.23117371,211.426212 8.55095702,208.609426 C11.8707403,205.79264 12.2731383,204.887245 13.5809317,196.537487 C15.6935211,183.057155 15.9953196,181.95056 18.711506,176.216389 C25.3510726,162.434258 41.7487902,155.694092 61.66749,158.611477 C81.183792,161.428263 94.0605272,173.600802 101.50489,196.135089 C105.730069,208.810625 110.760043,209.313623 114.683424,197.342283 C120.216396,180.743366 129.773348,167.866631 140.235695,162.937256 C151.804637,157.605483 169.10775,156.498888 180.274294,160.321669 C185.606067,162.233059 193.855226,169.073825 197.175009,174.405598 C199.891195,178.831976 201.802586,185.672741 203.210979,195.83329 C204.619372,206.195038 204.619372,206.295638 208.240953,209.011824 C211.057739,211.023814 211.258938,211.627411 211.258938,218.065779 C211.258938,222.592756 210.755941,225.308942 209.951145,226.113738 C209.146349,226.717335 202.305583,228.125728 194.559422,229.332922 C169.711347,233.155703 145.26567,232.250307 122.731383,226.516136 C114.582824,224.504146 102.007887,224.504146 94.0605272,226.516136 C78.9706031,230.439516 54.9273239,232.753305 40.7427952,231.64671 Z M78.6688046,220.781965 C81.7873889,219.77597 86.0125677,217.562781 88.0245576,215.85259 L91.7467389,212.834605 L91.3443409,204.183048 C90.3383459,185.773341 82.1897869,173.399603 67.9046587,168.269029 C64.3836764,167.061835 59.9572986,166.558838 53.317732,166.558838 C45.2697725,166.558838 42.8553846,166.961235 38.2278079,169.073825 C28.5702564,173.500203 25.8540701,178.228379 24.1438786,193.217704 C21.4276923,216.254988 25.9546695,221.989159 47.6841603,223.095753 C61.4662911,223.79995 71.224442,223.095753 78.6688046,220.781965 Z M184.600072,220.178368 C191.340238,216.757985 193.151029,213.136403 193.151029,202.573456 C193.151029,192.111109 191.742636,183.861951 189.02645,178.228379 C183.392878,166.558838 160.456194,162.434258 144.259675,170.381618 C134.702723,175.009195 128.264355,184.767346 125.648768,198.448877 C123.536179,209.615421 124.944572,214.343597 131.38294,217.86458 C139.2297,222.190358 145.16507,223.196353 162.971181,222.894554 C178.362904,222.693355 179.871896,222.492156 184.600072,220.178368 Z" id="Shape" fill-rule="nonzero"></path>
                        <path d="M3.5209823,200.401626 C5.53297219,190.142753 5.23117371,176.257007 2.81678584,162.889385 C-1.20719393,140.610015 1.40839292,122.786519 11.0659444,105.377524 C15.6935211,97.0875255 19.6169014,91.6990268 20.5222969,92.6316516 C21.5282918,93.5642764 18.309108,113.253022 15.9953196,119.781395 C12.8767353,129.314893 14.4863272,127.967768 19.4157024,117.190771 C28.9726544,95.9476508 31.2864427,81.1292793 26.5582665,69.4196571 C25.4516721,66.5181578 29.7774503,68.3834073 34.1032286,72.6320313 C38.0266089,76.4661554 40.8433947,83.8235287 39.6362008,87.1395279 C39.1332033,88.3830276 39.3344023,88.4866526 40.1391983,87.6576528 C40.8433947,86.9322779 41.5475912,83.7199037 41.8493897,80.3002795 C42.2517876,75.4299057 41.9499892,73.1501562 40.1391983,68.7979072 L37.9260094,63.4094085 L41.2457927,57.6064099 C45.7727699,49.8345367 55.6315204,40.7155389 64.5848754,35.94879 C79.976598,27.762417 85.4089707,22.7884182 83.7993788,18.4361692 C83.4975803,17.5035444 83.4975803,16.7781696 83.7993788,16.7781696 C85.5095702,16.7781696 90.4389454,20.0941688 92.2497363,22.3739183 L94.1611267,24.9645426 L95.3683207,20.7159186 C98.1851065,11.3896709 103.919278,5.2757973 113.275031,1.85617311 L117.500209,0.301798483 L116.494214,2.99604784 C114.985222,7.14104686 117.29901,12.5295456 123.133781,18.3325442 C128.465554,23.617418 131.584139,25.6899175 149.088451,35.4306652 C160.657393,41.9590386 169.10775,49.5236618 173.835926,57.6064099 L177.15571,63.4094085 L175.04312,68.4870323 C172.829931,73.7719061 172.326934,81.8546542 173.936526,85.6887782 C174.741322,87.5540278 174.841921,87.4504028 174.841921,84.9634034 C175.04312,78.9531548 179.469498,72.6320313 185.907866,69.1087822 L188.825251,67.6580325 L187.316259,72.5284064 C184.097075,83.3054038 188.221654,104.134024 196.87321,120.610395 C198.8852,124.444519 200.595392,127.449643 200.695991,127.346018 C200.796591,127.242393 199.891195,123.304644 198.583402,118.745145 C196.169014,110.144272 193.452828,93.7715263 194.257624,92.8389015 C195.06242,92.0099017 205.02177,107.450023 207.637356,113.563897 C213.874525,128.071393 215.081719,143.822389 211.661336,165.998134 C209.548747,179.780256 209.246948,195.634877 211.057739,202.163251 C212.466132,207.240874 212.264933,207.966249 209.850545,206.101 C208.743951,205.272 207.737956,201.541501 206.731961,194.495002 C204.92117,182.060005 203.210979,176.878757 199.086399,170.557633 C196.772611,167.241634 195.163019,162.78576 193.553427,155.221137 C188.020455,129.833018 176.753312,106.206523 166.492163,98.1237753 C160.657393,93.5642764 137.016511,91.077277 126.956562,94.0824013 C121.121791,95.7404009 129.572149,84.4452785 137.418909,79.9894046 C140.034496,78.5386549 140.436894,78.0205301 138.726703,78.5386549 C135.507519,79.3676547 128.666753,83.4090288 124.944572,86.621403 C121.021192,90.0410272 116.594814,98.7455251 118.405605,99.367275 C120.618794,100.196275 127.962557,106.310148 128.364955,107.657273 C128.666753,108.589898 127.660758,108.382648 124.944572,107.242773 C119.4116,104.652149 94.6641242,104.652149 88.929953,107.242773 L84.9059732,109.004398 L89.4329505,104.652149 C91.9479379,102.165149 94.8653232,99.6781499 95.8713181,99.160025 C97.682109,98.1237753 97.682109,97.8129004 96.0725171,94.3932762 C93.7587287,89.4192774 87.9239581,83.7199037 81.8879884,80.7147794 C74.9466233,77.1915303 70.7214445,76.1552805 76.8580137,79.4712797 C82.8939834,82.7872789 87.8233586,87.4504028 89.53355,91.5954018 C90.137147,93.2534014 90.5395449,94.7041511 90.3383459,94.9114011 C90.137147,95.118651 86.8173636,94.8077761 82.9945829,94.1860262 C78.0652076,93.4606514 72.230437,93.5642764 63.3776815,94.3932762 C50.8027447,95.5331509 50.7021452,95.5331509 46.8793644,99.4709 C35.9140195,110.455147 25.0492741,134.703392 20.4216974,158.433511 C19.3151029,163.925635 17.705511,168.796009 16.2971181,170.764883 C12.8767353,175.531632 11.2671434,180.298381 9.45635247,190.660878 C7.54496208,202.266876 6.63956663,204.961125 4.12457927,206.30825 C2.31378837,207.344499 2.31378837,207.033624 3.5209823,200.401626 Z" id="Path"></path>
                        <path d="M71.7104434,148.490902 C68.9863313,147.395508 61.3328735,142.603157 54.8468923,137.810807 C39.2805375,126.309167 11.2445454,150.133993 4.36940533,149.860145 C1.25613436,149.723221 20.2117528,122.338362 20.2117528,122.201438 C20.2117528,121.927589 23.1953041,120.284498 26.9571732,118.230633 C48.6203504,106.592068 70.2835276,105.633598 94.6708168,115.081375 C100.37848,117.409088 105.826704,119.189103 106.475303,119.189103 C107.25362,119.189103 112.831564,117.409088 118.928387,115.081375 C134.365022,109.19363 147.726143,107.413614 160.957545,109.467479 C171.983713,111.11057 188.847264,117.682936 191.701095,121.516816 C193.128011,123.433756 212.08266,150.681691 210.007146,149.860145 C205.077801,147.943205 176.653619,125.076848 160.827825,136.30464 C143.575115,148.490902 136.959414,151.366312 128.527639,149.860145 C122.171377,148.901675 113.480162,143.561627 109.848013,138.769277 L107.123901,135.209246 L100.767639,141.233914 C91.4278262,150.133993 82.0880133,152.461706 71.7104434,148.490902 Z" id="Path"></path>
                    </g>
                    <path d="M108.184363,57.8540624 C129.874294,57.8540624 155.203918,27.9969871 168.399839,35.6312788 C215.183495,62.6972252 206.771867,126.339216 206.771867,88.301043 C206.771867,39.5337236 162.632738,0 108.184363,0 C53.7359877,0 9.59685846,39.5337236 9.59685846,88.301043 C9.59685846,126.353265 1.4488406,66.4917453 48.2843542,35.6312788 C61.4727322,26.9413026 86.5228338,57.8540624 108.184363,57.8540624 Z" id="Oval"></path>
                </g>
            </g>
        </g>
    </g>
</svg>